<svg width="20" height="20" viewBox="0 0 20 20" fill="none" xmlns="http://www.w3.org/2000/svg">
<g id="Iconly/Light-Outline/Calendar">
<g id="Calendar">
<path id="Fill 1" fill-rule="evenodd" clip-rule="evenodd" d="M17.2221 8.2536H2.36877C2.02377 8.2536 1.74377 7.9736 1.74377 7.6286C1.74377 7.2836 2.02377 7.0036 2.36877 7.0036H17.2221C17.5671 7.0036 17.8471 7.2836 17.8471 7.6286C17.8471 7.9736 17.5671 8.2536 17.2221 8.2536Z" fill="black"/>
<path id="Fill 3" fill-rule="evenodd" clip-rule="evenodd" d="M13.5009 11.508C13.1559 11.508 12.8726 11.228 12.8726 10.883C12.8726 10.538 13.1484 10.258 13.4934 10.258H13.5009C13.8459 10.258 14.1259 10.538 14.1259 10.883C14.1259 11.228 13.8459 11.508 13.5009 11.508Z" fill="black"/>
<path id="Fill 5" fill-rule="evenodd" clip-rule="evenodd" d="M9.80302 11.508C9.45802 11.508 9.17468 11.228 9.17468 10.883C9.17468 10.538 9.45052 10.258 9.79552 10.258H9.80302C10.148 10.258 10.428 10.538 10.428 10.883C10.428 11.228 10.148 11.508 9.80302 11.508Z" fill="black"/>
<path id="Fill 7" fill-rule="evenodd" clip-rule="evenodd" d="M6.09743 11.508C5.75243 11.508 5.46826 11.228 5.46826 10.883C5.46826 10.538 5.74493 10.258 6.08993 10.258H6.09743C6.44243 10.258 6.72243 10.538 6.72243 10.883C6.72243 11.228 6.44243 11.508 6.09743 11.508Z" fill="black"/>
<path id="Fill 9" fill-rule="evenodd" clip-rule="evenodd" d="M13.5009 14.7469C13.1559 14.7469 12.8726 14.4669 12.8726 14.1219C12.8726 13.7769 13.1484 13.4969 13.4934 13.4969H13.5009C13.8459 13.4969 14.1259 13.7769 14.1259 14.1219C14.1259 14.4669 13.8459 14.7469 13.5009 14.7469Z" fill="black"/>
<path id="Fill 11" fill-rule="evenodd" clip-rule="evenodd" d="M9.80302 14.7469C9.45802 14.7469 9.17468 14.4669 9.17468 14.1219C9.17468 13.7769 9.45052 13.4969 9.79552 13.4969H9.80302C10.148 13.4969 10.428 13.7769 10.428 14.1219C10.428 14.4669 10.148 14.7469 9.80302 14.7469Z" fill="black"/>
<path id="Fill 13" fill-rule="evenodd" clip-rule="evenodd" d="M6.09743 14.7469C5.75243 14.7469 5.46826 14.4669 5.46826 14.1219C5.46826 13.7769 5.74493 13.4969 6.08993 13.4969H6.09743C6.44243 13.4969 6.72243 13.7769 6.72243 14.1219C6.72243 14.4669 6.44243 14.7469 6.09743 14.7469Z" fill="black"/>
<path id="Fill 15" fill-rule="evenodd" clip-rule="evenodd" d="M13.1613 4.82581C12.8163 4.82581 12.5363 4.54581 12.5363 4.20081V1.45831C12.5363 1.11331 12.8163 0.833313 13.1613 0.833313C13.5063 0.833313 13.7863 1.11331 13.7863 1.45831V4.20081C13.7863 4.54581 13.5063 4.82581 13.1613 4.82581Z" fill="black"/>
<path id="Fill 17" fill-rule="evenodd" clip-rule="evenodd" d="M6.42944 4.82581C6.08444 4.82581 5.80444 4.54581 5.80444 4.20081V1.45831C5.80444 1.11331 6.08444 0.833313 6.42944 0.833313C6.77444 0.833313 7.05444 1.11331 7.05444 1.45831V4.20081C7.05444 4.54581 6.77444 4.82581 6.42944 4.82581Z" fill="black"/>
<g id="Group 21">
<mask id="mask0_117_6926" style="mask-type:alpha" maskUnits="userSpaceOnUse" x="1" y="2" width="17" height="17">
<path id="Clip 20" fill-rule="evenodd" clip-rule="evenodd" d="M1.66663 2.14923H17.9166V18.75H1.66663V2.14923Z" fill="white"/>
</mask>
<g mask="url(#mask0_117_6926)">
<path id="Fill 19" fill-rule="evenodd" clip-rule="evenodd" d="M6.2675 3.39925C4.10667 3.39925 2.91667 4.55175 2.91667 6.64425V14.1851C2.91667 16.3234 4.10667 17.5001 6.2675 17.5001H13.3158C15.4767 17.5001 16.6667 16.3451 16.6667 14.2484V6.64425C16.67 5.61508 16.3933 4.81508 15.8442 4.26508C15.2792 3.69842 14.4083 3.39925 13.3233 3.39925H6.2675ZM13.3158 18.7501H6.26746C3.42996 18.7501 1.66663 17.0009 1.66663 14.1851V6.64423C1.66663 3.8709 3.42996 2.14923 6.26746 2.14923H13.3233C14.7475 2.14923 15.925 2.5759 16.7291 3.38173C17.51 4.1659 17.9208 5.2934 17.9166 6.6459V14.2484C17.9166 17.0251 16.1533 18.7501 13.3158 18.7501Z" fill="black"/>
</g>
</g>
</g>
</g>
</svg>
